<svg xmlns="http://www.w3.org/2000/svg" viewBox="0 0 100 72.44"><defs><style>.cls-1{fill:#fff;}</style></defs><g id="Layer_2" data-name="Layer 2"><g id="Layer_1-2" data-name="Layer 1"><path class="cls-1" d="M62.45,72a12.52,12.52,0,0,1-10.7-2.11,15.34,15.34,0,0,0-5.5-2.81,15.92,15.92,0,0,0-4-.52,15.43,15.43,0,0,0-8.83,2.75,6.36,6.36,0,0,0-1.23,1c0-.06-.11,0-.17.12a12.5,12.5,0,0,1-18.83-7.19L.42,15.67A12.51,12.51,0,0,1,9.19.41,12.19,12.19,0,0,1,12.4,0a12.41,12.41,0,0,1,12,9.24L36.14,52.79l.23.94a4.06,4.06,0,0,0,3.74,2.45,4,4,0,0,0,4-4,3.73,3.73,0,0,0-.06-.82L34.5,15.67A12.48,12.48,0,0,1,43.27.41,12.21,12.21,0,0,1,46.49,0a12.45,12.45,0,0,1,12,9.24L71.27,56.77A12.46,12.46,0,0,1,62.45,72Z"/><rect class="cls-1" x="73.4" y="-0.22" width="24.89" height="38.07" rx="12.45" transform="translate(163.9 59.2) rotate(-165)"/></g></g></svg>