<svg xmlns="http://www.w3.org/2000/svg" viewBox="0 0 16 11.59"><defs><style>.cls-1{fill:#fff;}</style></defs><g id="Layer_2" data-name="Layer 2"><g id="Layer_1-2" data-name="Layer 1"><path class="cls-1" d="M10,11.52a2,2,0,0,1-1.71-.33,2.3,2.3,0,0,0-.88-.45,2.35,2.35,0,0,0-.64-.09,2.49,2.49,0,0,0-1.42.44l-.19.16s0,0,0,0a1.94,1.94,0,0,1-.57.25,2,2,0,0,1-2.44-1.4l-2-7.61A2,2,0,0,1,1.47.07,1.84,1.84,0,0,1,2,0,2,2,0,0,1,3.91,1.48l1.87,7,0,.15a.65.65,0,0,0,.6.39.64.64,0,0,0,.63-.64V8.22L5.52,2.51A2,2,0,0,1,6.92.07,1.86,1.86,0,0,1,7.44,0,2,2,0,0,1,9.36,1.48l2,7.6A2,2,0,0,1,10,11.52Z"/><rect class="cls-1" x="11.74" y="-0.04" width="3.98" height="6.09" rx="1.99" transform="translate(26.22 9.47) rotate(-165)"/></g></g></svg>