<svg xmlns="http://www.w3.org/2000/svg" viewBox="0 0 50 36.22"><defs><style>.cls-1{fill:#fff;}</style></defs><g id="Layer_2" data-name="Layer 2"><g id="Layer_1-2" data-name="Layer 1"><path class="cls-1" d="M31.22,36a6.25,6.25,0,0,1-5.35-1,7.66,7.66,0,0,0-2.74-1.4,7.85,7.85,0,0,0-2-.27,7.69,7.69,0,0,0-4.41,1.38,3.18,3.18,0,0,0-.62.49s-.06,0-.09.06a6,6,0,0,1-1.78.79,6.23,6.23,0,0,1-7.63-4.38L.21,7.83A6.26,6.26,0,0,1,4.59.2,6.4,6.4,0,0,1,6.2,0a6.2,6.2,0,0,1,6,4.62L18.07,26.4l.12.46a2,2,0,0,0,1.87,1.23,2,2,0,0,0,2-2,2.88,2.88,0,0,0,0-.41L17.25,7.83a6.22,6.22,0,1,1,12-3.21l6.38,23.76A6.23,6.23,0,0,1,31.22,36Z"/><rect class="cls-1" x="36.7" y="-0.11" width="12.45" height="19.03" rx="6.22" transform="translate(81.95 29.6) rotate(-165)"/></g></g></svg>